<?xml version="1.0" encoding="UTF-8"?><svg id="Bob_half_body" xmlns="http://www.w3.org/2000/svg" width="1000" height="1000" viewBox="0 0 1000 1000"><g id="Bob_half_body_pos"><path d="M547.89062,510.9762c-36.25391,15.10547-59.52783,15.10547-95.78174,0-4.06055-1.69238-8.72021.22754-10.41113,4.28613-1.69092,4.05957.22852,8.7207,4.28711,10.41113,20.19238,8.41406,37.104,12.62109,54.01514,12.62109s33.82227-4.20703,54.01562-12.62109c4.05859-1.69043,5.97754-6.35156,4.28613-10.41113-1.69043-4.05859-6.35254-5.97852-10.41113-4.28613Z"/><path d="M455.41602,449.85657c0-23.81567-19.25-42.9917-42.9917-42.9917s-42.9917,19.17603-42.9917,42.9917,19.25006,42.9917,42.9917,42.9917,42.9917-19.17627,42.9917-42.9917ZM423.71411,451.44886c-5.27637,0-9.55371-4.27734-9.55371-9.55371s4.27734-9.55371,9.55371-9.55371,9.55371,4.27734,9.55371,9.55371-4.27734,9.55371-9.55371,9.55371Z"/><path d="M587.57568,406.86488c-23.7417,0-42.9917,19.17603-42.9917,42.9917s19.25,42.9917,42.9917,42.9917,42.9917-19.17627,42.9917-42.9917-19.25006-42.9917-42.9917-42.9917ZM598.86542,451.44886c-5.27637,0-9.55371-4.27734-9.55371-9.55371s4.27734-9.55371,9.55371-9.55371,9.55371,4.27734,9.55371,9.55371-4.27728,9.55371-9.55371,9.55371Z"/><path d="M724,400h-16v-16.00195l12,.00195h.81055c.30371.01074.60547.01562.90723.01562,8.2998,0,16.05078-3.96094,20.90039-10.73535,3.99121-5.57422,5.56934-12.36719,4.44238-19.12695-1.12793-6.76465-4.82715-12.68457-10.41797-16.66797-.33789-.24121-.69336-.45508-1.06445-.64062l-27.63574-13.81738c-1.02051-44.06543-15.59961-85.76074-42.31836-120.87402-25.81958-33.92944-62.05322-59.48486-102.44629-72.37341-2.74756-10.22717-12.09521-17.77991-23.17773-17.77991h-80c-11.08252,0-20.43066,7.55298-23.17798,17.78052-40.3623,12.88123-76.57007,38.40247-102.38647,72.29565-26.75879,35.12988-41.3584,76.84961-42.37793,120.95117l-27.63574,13.81738c-.37109.18555-.72656.39941-1.06445.64062-5.59082,3.9834-9.29004,9.90332-10.41797,16.66797-1.12695,6.75977.45117,13.55273,4.44238,19.12598,5.02637,7.02148,13.14648,11.03906,21.80664,10.7207h12.81152v16h-16c-13.2334,0-24,10.7666-24,24v64c0,13.2334,10.7666,24,24,24h16.82178c5.87109,42.86646,42.7251,76,87.17822,76h240c44.45312,0,81.30713-33.13354,87.17822-76h16.82178c13.2334,0,24-10.7666,24-24v-64c0-13.2334-10.7666-24-24-24ZM279.03711,368c-.11133,0-.22168.00195-.33301.00684-3.29395.13965-6.40332-1.37305-8.3125-4.04102-1.5-2.09473-2.09277-4.64551-1.66992-7.18262.39453-2.36719,1.62891-4.45996,3.49609-5.94727l31.36035-15.68066c2.70996-1.35547,4.42188-4.125,4.42188-7.15527,0-42.40039,13.54297-82.5918,39.16406-116.22852,22.62036-29.69702,53.87085-52.4314,88.83594-64.83447v109.06299c0,4.41797,3.58203,8,8,8s8-3.58203,8-8v-120c0-4.41113,3.58887-8,8-8h80c4.41113,0,8,3.58887,8,8v120c0,4.41797,3.58203,8,8,8s8-3.58203,8-8v-109.06299c34.99219,12.41321,66.26758,35.17603,88.89062,64.90576,25.58594,33.62207,39.10938,73.78906,39.10938,116.15723,0,3.03027,1.71191,5.7998,4.42188,7.15527l31.36035,15.68066c1.86719,1.4873,3.10156,3.58008,3.49609,5.94727.42285,2.53711-.16992,5.08789-1.66992,7.18359-1.90918,2.66797-5.04199,4.18262-8.3125,4.04004-.11035-.00488-.2207-.00684-.33105-.00684h-441.92773ZM268,488v-64c0-4.41113,3.58887-8,8-8h16v80h-16c-4.41113,0-8-3.58887-8-8ZM620,572h-240c-39.70117,0-72-32.29883-72-72v-116h384v116c0,39.70117-32.29883,72-72,72ZM732,488c0,4.41113-3.58887,8-8,8h-16v-80h16c4.41113,0,8,3.58887,8,8v64Z"/><path d="M345.24316,327.90234c50.2002-7.89746,102.26855-11.90234,154.75684-11.90234s104.55664,4.00488,154.75684,11.90234c.4209.06641.83984.09863,1.25293.09863,3.87012,0,7.27246-2.81445,7.89258-6.75781.6875-4.36426-2.29395-8.45898-6.65918-9.14551-51.02051-8.02734-103.9248-12.09766-157.24316-12.09766s-106.22266,4.07031-157.24316,12.09766c-4.36523.68652-7.34668,4.78125-6.65918,9.14551.68555,4.36426,4.78516,7.34375,9.14551,6.65918Z"/><path d="M648,604h-296c-54.03809,0-98.00098,43.96289-98.00098,98.00098,0,20.1084,6.04785,39.43359,17.48926,55.88672,10.8584,15.61353,25.81494,27.60315,43.31641,34.78467,2.88013,2.87842,6.02612,5.50952,9.4165,7.84839,2.28833,24.35132,22.84619,43.47925,47.77881,43.47925h256c24.93262,0,45.49072-19.12817,47.77881-43.47974,3.39014-2.33862,6.53564-4.96948,9.41553-7.84741,17.50195-7.1814,32.45874-19.17139,43.31738-34.78516,11.44141-16.45312,17.48926-35.77832,17.48926-55.88672,0-54.03809-43.96289-98.00098-98.00098-98.00098ZM284.62402,748.75293c-9.56738-13.75879-14.625-29.92578-14.625-46.75195,0-39.27417,27.75854-72.17188,64.68286-80.14404-6.67334,8.24609-10.68188,18.73315-10.68188,30.14307v36.65186c-13.80029,9.57251-24.10547,24.18518-27.8252,41.68604-2.38257,11.20728-1.80322,22.42761,1.19971,32.82275-4.75806-4.25684-9.04248-9.07593-12.75049-14.40771ZM311.8252,733.66406c5.14453-24.20215,26.74219-41.19629,50.85938-41.19629.9502,0,1.90625.02637,2.86328.08008l-21.36914,100.5293c-23.64062-8.9834-37.70117-34.25684-32.35352-59.41309ZM628,828h-256c-12.79443,0-23.85815-7.55811-28.97339-18.44092.25415.07666.50195.16504.75757.23877,1.09668.31641,2.22461.47168,3.34766.47168,2.17188,0,4.32812-.58203,6.21387-1.71289,2.8418-1.7041,4.86621-4.54102,5.55469-7.78223l23.22656-109.27051c.68945-3.24121-.00684-6.65625-1.90918-9.36914-1.91602-2.73145-4.91504-4.5625-8.22852-5.02246-11.10059-1.54321-22.01489-.25854-31.98926,3.30737v-28.41968c0-17.64453,14.35547-32,32-32h256c17.64453,0,32,14.35547,32,32v28.42212c-9.97412-3.56592-20.88867-4.8512-31.98926-3.30981-3.31348.45996-6.3125,2.29102-8.22852,5.02246-1.90234,2.71289-2.59863,6.12793-1.90918,9.36816l23.22559,109.27148v.00098c.68945,3.24121,2.71484,6.07812,5.55664,7.78223,1.88574,1.13086,4.04102,1.71191,6.21289,1.71191,1.12305,0,2.25-.15527,3.3457-.47168.25635-.07397.50488-.1626.75977-.23926-5.11499,10.88306-16.17896,18.44141-28.97363,18.44141ZM655.82031,793.07715l-21.36816-100.5293c25.28613-1.42188,48.37598,15.96191,53.72266,41.11621,5.34668,25.15625-8.71387,50.42969-32.35449,59.41309ZM715.37598,748.75293c-3.70801,5.33203-7.99292,10.15137-12.75122,14.4082,3.00293-10.39514,3.58276-21.61572,1.20044-32.82324-3.71948-17.50073-14.02441-32.11194-27.8252-41.68384v-36.65405c0-11.40991-4.00854-21.89697-10.68188-30.14307,36.92432,7.97217,64.68286,40.86987,64.68286,80.14404,0,16.82617-5.05762,32.99316-14.625,46.75195Z"/><path d="M554.41992,682.12109c-3.24609-2.99707-8.30762-2.79297-11.30469.45312-2.99609,3.24707-2.79395,8.30762.45312,11.30469l32.63574,30.12109-32.63574,30.12109c-3.24707,2.99707-3.44922,8.05762-.45312,11.30469,1.57715,1.70898,3.72559,2.57422,5.88086,2.57422,1.94043,0,3.88574-.70117,5.42383-2.12109l39.00586-36c1.64062-1.51465,2.57422-3.64551,2.57422-5.87891s-.93359-4.36426-2.57422-5.87891l-39.00586-36Z"/><path d="M456.88477,682.57422c-2.99707-3.24805-8.05859-3.4502-11.30469-.45312l-39.00586,36c-1.64062,1.51465-2.57422,3.64551-2.57422,5.87891s.93359,4.36426,2.57422,5.87891l39.00586,36c1.53809,1.41992,3.4834,2.12109,5.42383,2.12109,2.15527,0,4.30371-.86621,5.88086-2.57422,2.99609-3.24707,2.79395-8.30762-.45312-11.30469l-32.63574-30.12109,32.63574-30.12109c3.24707-2.99707,3.44922-8.05762.45312-11.30469Z"/><path d="M523.07715,668.61523c-4.0752-1.69727-8.7627.22852-10.46191,4.30762l-40,96c-1.69922,4.0791.22949,8.7627,4.30762,10.46191,1.00586.41895,2.04785.61719,3.07422.61719,3.13281,0,6.10742-1.85254,7.3877-4.9248l40-96c1.69922-4.0791-.22949-8.7627-4.30762-10.46191Z"/></g></svg>