<svg width="162" height="204" viewBox="0 0 162 204" fill="none" xmlns="http://www.w3.org/2000/svg">
<path d="M161.409 0.347168H0V203.849H161.409V0.347168Z" fill="#A4D1FE"/>
<path d="M19.8873 31.2207V43.8918H16.3052V31.2207H19.8873Z" fill="white"/>
<path d="M29.3418 31.2207V43.8918H26.1904L24.3308 38.1251V43.8918H21.3359V31.2207H24.3308L26.3469 36.9286V31.2207H29.3418Z" fill="white"/>
<path d="M39.3247 31.2207L37.5043 43.8918H32.0627L29.9878 31.2207H33.7656C34.1963 34.7121 34.529 37.6739 34.7052 40.0865C34.8814 37.6347 35.0771 35.4771 35.2924 33.5745L35.5469 31.2207H39.3247Z" fill="white"/>
<path d="M48.133 38.6546C48.133 39.9295 48.0938 40.8318 48.0351 41.3614C47.9764 41.891 47.7611 42.3814 47.4283 42.8129C47.076 43.2444 46.6258 43.5779 46.0385 43.8133C45.4513 44.0486 44.7662 44.1663 44.0028 44.1663C43.2394 44.1663 42.5935 44.0486 42.0062 43.8329C41.419 43.6171 40.9492 43.2837 40.5773 42.8325C40.225 42.3814 40.0097 41.9106 39.9314 41.381C39.8726 40.8514 39.8335 39.9492 39.8335 38.635V36.4578C39.8335 35.1828 39.8726 34.2805 39.9314 33.7509C39.9901 33.2213 40.2054 32.731 40.5382 32.2995C40.8709 31.8679 41.3407 31.5149 41.9279 31.2991C42.5152 31.0637 43.2003 30.946 43.9832 30.946C44.7271 30.946 45.3926 31.0637 45.9798 31.2795C46.567 31.4953 47.0368 31.8287 47.4087 32.2798C47.7611 32.731 47.9764 33.2017 48.0547 33.7313C48.133 34.2609 48.1526 35.1632 48.1526 36.4774V38.6546H48.133ZM44.5509 34.4963C44.5509 33.9079 44.5117 33.5352 44.453 33.3586C44.3943 33.1821 44.2377 33.1036 44.0224 33.1036C43.8266 33.1036 43.6896 33.1625 43.5918 33.2998C43.4939 33.4371 43.4352 33.8294 43.4352 34.4767V40.4003C43.4352 41.1457 43.4743 41.5968 43.533 41.7537C43.5918 41.9302 43.7483 42.0087 43.9832 42.0087C44.2181 42.0087 44.3747 41.9106 44.453 41.7145C44.5313 41.5183 44.5509 41.0476 44.5509 40.3022V34.4767V34.4963Z" fill="white"/>
<path d="M53.0655 31.2207V43.8918H49.4834V31.2207H53.0655Z" fill="white"/>
<path d="M62.8721 36.7519H59.29V34.5551C59.29 33.9078 59.2509 33.5155 59.1726 33.3586C59.0943 33.2017 58.9181 33.1232 58.6637 33.1232C58.3701 33.1232 58.1743 33.2213 58.096 33.4174C58.0177 33.6136 57.9786 34.0255 57.9786 34.6728V40.5572C57.9786 41.1652 58.0177 41.5771 58.096 41.7733C58.1743 41.9694 58.3505 42.0479 58.6245 42.0479C58.8986 42.0479 59.0747 41.9498 59.153 41.7733C59.2313 41.5771 59.2705 41.1456 59.2705 40.4395V38.8507H62.8526V39.3411C62.8526 40.6552 62.7547 41.5771 62.5589 42.1263C62.3632 42.6756 61.913 43.1659 61.2279 43.5778C60.5428 43.9897 59.6815 44.2055 58.6832 44.2055C57.685 44.2055 56.765 44.0289 56.0799 43.6759C55.3948 43.3228 54.9446 42.8521 54.7292 42.2244C54.5139 41.5968 54.3965 40.6749 54.3965 39.4391V35.732C54.3965 34.8101 54.4356 34.1236 54.4944 33.6724C54.5727 33.2213 54.7684 32.7702 55.1012 32.3582C55.4339 31.9463 55.9037 31.6129 56.5105 31.3579C57.1173 31.1225 57.8024 30.9852 58.5854 30.9852C59.6424 30.9852 60.5232 31.1814 61.2083 31.554C61.8934 31.9267 62.3436 32.3975 62.5589 32.9663C62.7743 33.5351 62.8917 34.3982 62.8917 35.5751V36.7715L62.8721 36.7519Z" fill="white"/>
<path d="M64.1641 31.2207H70.1538V33.751H67.7657V36.1636H70.0168V38.5762H67.7657V41.3615H70.4083V43.8918H64.1836V31.2207H64.1641Z" fill="white"/>
<path d="M68.921 149.36H64.1449V148.634C64.1449 147.849 64.0862 147.359 63.9883 147.104C63.8709 146.869 63.636 146.751 63.2836 146.751C62.99 146.751 62.7747 146.849 62.6181 147.065C62.4615 147.281 62.4028 147.575 62.4028 147.987C62.4028 148.673 62.5594 149.164 62.853 149.438C63.1466 149.713 64.0079 150.242 65.4368 151.047C66.6504 151.714 67.4725 152.243 67.9227 152.596C68.3729 152.949 68.7449 153.459 69.0385 154.126C69.3321 154.773 69.4887 155.597 69.4887 156.578C69.4887 158.147 69.0776 159.363 68.2555 160.265C67.4334 161.148 66.2002 161.717 64.556 161.913V163.561H62.3636V161.854C61.0913 161.737 59.9756 161.285 59.0165 160.501C58.0573 159.716 57.5875 158.343 57.5875 156.382V155.519H62.3636V156.598C62.3636 157.774 62.4028 158.52 62.5202 158.794C62.6181 159.089 62.853 159.226 63.2445 159.226C63.5773 159.226 63.8121 159.128 63.9687 158.932C64.1253 158.736 64.2036 158.441 64.2036 158.049C64.2036 157.068 64.1253 156.362 63.9883 155.931C63.8317 155.499 63.3228 155.048 62.4419 154.538C60.9739 153.695 59.9952 153.087 59.4667 152.675C58.9382 152.263 58.4879 151.713 58.0965 151.007C57.705 150.282 57.5288 149.477 57.5288 148.575C57.5288 147.261 57.9399 146.241 58.7424 145.496C59.545 144.75 60.7586 144.28 62.3832 144.123V142.73H64.5755V144.123C66.0436 144.299 67.1593 144.75 67.8836 145.496C68.6078 146.241 68.9797 147.241 68.9797 148.536C68.9797 148.712 68.9797 148.987 68.9406 149.36H68.921Z" fill="white"/>
<path d="M15.5811 62.251H136.432" stroke="#0071BC" stroke-width="0.81" stroke-miterlimit="10"/>
<path d="M15.5811 133.727H136.432" stroke="#0071BC" stroke-width="0.81" stroke-miterlimit="10"/>
<path d="M98.1061 72.8037H17.3623V79.5708H98.1061V72.8037Z" fill="#D0EEFF"/>
<path d="M135.826 72.8037H103.117V79.5708H135.826V72.8037Z" fill="#D0EEFF"/>
<path d="M135.845 51.5022H17.3623V53.7775H135.845V51.5022Z" fill="#D0EEFF"/>
<path d="M135.826 42.401H82.7012V44.6763H135.826V42.401Z" fill="#D0EEFF"/>
<path d="M135.826 33.2802H82.7012V35.5554H135.826V33.2802Z" fill="#D0EEFF"/>
<path d="M98.1061 94.7329H17.3623V101.5H98.1061V94.7329Z" fill="#D0EEFF"/>
<path d="M135.826 94.7329H103.117V101.5H135.826V94.7329Z" fill="#D0EEFF"/>
<path d="M98.1061 116.662H17.3623V123.429H98.1061V116.662Z" fill="#D0EEFF"/>
<path d="M135.826 116.662H103.117V123.429H135.826V116.662Z" fill="#D0EEFF"/>
<path d="M135.826 143.475H83.6602V148.34H135.826V143.475Z" fill="#D0EEFF"/>
<path d="M135.845 155.381H101.042V160.246H135.845V155.381Z" fill="#D0EEFF"/>
</svg>
