<svg width="354" height="308" viewBox="0 0 354 308" fill="none" xmlns="http://www.w3.org/2000/svg">
<path d="M305.981 102.072C316.296 102.092 326.631 102.111 336.947 102.15C348.77 102.19 355.66 110.84 352.626 122.236C346.91 143.714 341.019 165.172 335.088 186.592C332.719 195.163 327.551 198.831 318.586 198.87C314.965 198.87 311.344 198.929 307.723 198.968C303.945 198.968 300.167 198.968 296.37 198.968C295.528 198.968 294.667 198.968 293.825 198.968C289.812 198.929 285.78 198.635 281.787 198.89C273.057 199.459 266.734 196.222 263.25 187.984C263.485 184.787 262.937 181.609 263.818 178.393C269.631 157.13 275.366 135.848 281.082 114.547C283.196 106.623 288.853 102.17 297.133 102.131C300.089 102.131 303.025 102.092 305.981 102.052V102.072Z" fill="#A1A8B0"/>
<path d="M305.981 102.072C303.025 102.092 300.089 102.131 297.133 102.15C288.853 102.19 283.196 106.623 281.082 114.566C275.386 135.868 269.651 157.15 263.818 178.412C262.937 181.629 263.485 184.807 263.25 188.004C253.267 188.004 243.265 188.004 233.282 187.925C231.99 187.925 230.268 188.769 229.465 186.807C230.503 178.785 231.56 170.743 232.617 162.72C232.617 156.522 234.633 150.501 234.3 144.283C236.042 139.732 235.807 134.868 236.512 130.16C230.933 124.962 224.161 121.706 217.505 118.234C215.665 116.704 215.567 115.135 216.859 113.017C224.161 101.013 231.364 88.9497 238.508 76.8475C242.051 70.8258 247.513 68.8643 254.07 68.8839C261.782 68.9232 269.494 68.9624 277.187 68.982C280.652 69.0997 284.214 68.7663 287.581 69.4135C296.194 71.0612 303.025 78.6128 304.239 87.4002C304.924 92.2842 305.394 97.2075 305.961 102.111L305.981 102.072Z" fill="#A6C7FE"/>
<path d="M229.484 186.768C230.267 188.729 231.99 187.886 233.301 187.886C243.284 187.984 253.287 187.964 263.27 187.964C266.754 196.203 273.076 199.459 281.806 198.87C285.8 198.615 289.832 198.909 293.845 198.949C292.533 202.715 291.222 206.481 289.93 210.247C289.401 210.325 288.873 210.423 288.344 210.443C267.224 211.169 246.083 210.737 224.943 210.659C218.523 210.639 212.709 211.031 208.677 216.818C207.483 216.818 206.269 216.778 205.075 216.778C194.858 216.778 194.956 216.778 193.311 227.056C190.747 242.866 188.007 258.656 185.364 274.446C185.149 275.72 185.364 277.27 183.368 277.231C176.693 277.231 170.018 277.231 163.343 277.231C160.524 276.74 156.551 278.525 155.122 276.328C153.987 274.602 155.709 270.974 156.159 268.208C159.683 246.907 163.186 225.585 166.769 204.303C168.667 193.045 176.262 186.67 187.674 186.67C201.63 186.67 215.567 186.709 229.524 186.729L229.484 186.768Z" fill="#0143CD"/>
<path d="M234.319 144.224C234.652 150.461 232.636 156.463 232.636 162.662C161.17 162.662 89.7244 162.662 18.2589 162.564C15.264 162.564 14.4223 163.348 14.4419 166.369C14.5593 206.795 14.5202 247.22 14.5398 287.666C13.7177 287.666 12.8955 287.666 12.0538 287.666C12.0538 241.493 12.1321 195.32 11.9951 149.147C11.9951 145.165 12.7976 143.988 17.0257 144.028C38.4595 144.243 59.8933 144.087 81.3271 144.028C102.878 144.028 124.43 144.028 146 144.028C149.778 145.813 153.654 143.616 157.432 144.283C176.947 147.774 196.443 151.364 215.92 154.973C219.521 155.64 222.223 154.502 224.18 151.56C225.805 149.108 227.214 146.538 228.741 144.008C230.6 144.067 232.479 144.126 234.339 144.165L234.319 144.224Z" fill="#A1A8B0"/>
<path d="M208.658 216.857C212.69 211.071 218.503 210.678 224.924 210.698C246.064 210.776 267.185 211.188 288.325 210.482C288.853 210.482 289.382 210.345 289.91 210.286C290.791 211.424 292.044 210.855 293.14 211.012C296.507 210.129 300.265 212.032 303.397 209.541C304.258 210.776 305.55 210.404 306.705 210.423C309.524 210.463 312.342 210.423 315.161 210.423C326.69 210.423 330.918 215.347 329.254 226.86C328.569 231.587 324.048 235.157 318.43 235.177C303.945 235.216 289.44 235.177 274.956 235.177C273.487 235.177 272 235.216 270.532 235.236C269.71 235.255 268.888 235.275 268.065 235.295C258.709 235.295 249.333 235.255 239.976 235.255C234.398 235.216 228.819 234.981 223.26 235.197C218.425 235.393 214.06 234.569 210.321 231.333C208.07 226.703 208.795 221.741 208.658 216.877V216.857Z" fill="#A1A8B0"/>
<path d="M145.981 144.087C124.43 144.087 102.878 144.087 81.3076 144.087C81.3337 139.261 83.7413 136.849 88.5305 136.849C93.933 136.849 96.6342 134.194 96.6342 128.885C96.6342 112.762 96.6342 96.6387 96.6342 80.5154C96.6342 74.1015 99.2376 71.5123 105.658 71.5123C132.083 71.5123 158.489 71.5123 184.914 71.5123C192.294 71.5123 194.799 73.9445 194.819 81.3785C194.858 98.8355 194.819 116.312 194.78 133.769C192.117 133.887 189.436 134.122 186.774 134.122C175.147 134.142 163.519 135.162 151.931 133.436C148.408 132.906 144.963 131.219 141.303 132.298C136.566 133.71 131.887 135.299 127.17 136.79C125.996 137.163 124.645 137.496 124.782 139.006C124.939 140.772 126.446 140.929 127.836 140.791C130.889 140.536 134.06 140.576 136.977 139.752C141.479 138.496 144.493 139.438 145.981 144.067V144.087ZM145.335 128.807C157.667 128.807 169.998 128.748 182.33 128.866C185.071 128.885 186.069 128.12 186.049 125.237C185.912 111.409 185.932 97.5606 186.049 83.7323C186.069 81.0254 185.11 80.3193 182.546 80.3389C158.019 80.4174 133.473 80.4174 108.946 80.3389C106.382 80.3389 105.423 81.045 105.443 83.7323C105.56 97.5606 105.56 111.409 105.443 125.237C105.423 128.12 106.402 128.885 109.142 128.866C121.2 128.748 133.277 128.807 145.335 128.807Z" fill="#DDE0E5"/>
<path d="M23.8767 287.705C21.6844 265.442 43.9795 249.966 63.9061 258.636C69.8762 261.245 74.2804 265.619 77.9212 271.758C80.4267 268.189 82.7365 264.874 85.0854 261.578C86.1228 260.107 86.8667 257.91 89.3134 258.813C91.4666 259.617 90.7619 261.696 90.8794 263.363C90.9185 264.011 90.9577 264.677 91.036 266.129C92.8172 263.697 94.2266 261.833 95.5772 259.931C96.3797 258.813 97.4368 258.342 98.7091 258.754C99.9423 259.166 100.001 260.303 100.001 261.421C100.001 263.304 100.021 265.168 100.001 267.051C99.9618 269.954 99.6095 272.896 102.369 275.034C103.015 275.544 103.524 276.721 103.466 277.545C103.152 281.487 104.836 284.645 107.028 287.646C85.5552 287.646 64.1018 287.725 42.6288 287.587C39.5165 287.587 38.5183 288.313 38.5966 291.55C38.7532 298.434 35.5821 303.103 30.0426 305.221C26.6563 306.516 23.1525 306.025 19.6878 306.104C17.3585 306.143 15.5577 305.123 15.5968 302.691C15.636 300.141 17.613 299.572 19.9031 299.631C22.4478 299.69 25.012 299.886 27.4784 298.983C31.0018 297.689 33.2136 293.413 32.0783 289.333C31.1779 286.077 28.2613 288.235 26.3235 287.705C25.5797 287.489 24.7184 287.685 23.9159 287.685L23.8767 287.705Z" fill="#F7931E"/>
<path d="M23.8768 287.705C24.6793 287.705 25.5406 287.528 26.2844 287.725C28.2223 288.274 31.1192 286.116 32.0392 289.353C33.1745 293.433 30.9627 297.708 27.4393 299.003C24.9729 299.905 22.4087 299.729 19.8641 299.65C17.5935 299.592 15.6164 300.141 15.5577 302.71C15.5186 305.142 17.3194 306.162 19.6488 306.123C23.1134 306.064 26.6172 306.535 30.0035 305.241C35.543 303.122 38.7141 298.454 38.5575 291.569C38.4792 288.333 39.4775 287.587 42.5898 287.607C64.0627 287.744 85.5161 287.666 106.989 287.666C112.392 288.156 116.443 291.844 116.737 296.532C117.089 302.083 114.192 305.947 108.594 307.182C107.165 307.496 105.697 307.732 104.249 307.732C73.6933 307.771 43.1574 307.732 12.602 307.771C10.1552 307.771 7.76717 307.457 5.59443 306.398C1.91448 304.613 -0.57146 299.807 0.113638 296.061C0.877034 291.844 4.59616 288.254 8.8242 287.725C9.88121 287.587 10.9578 287.685 12.0344 287.666C12.8565 287.666 13.6786 287.666 14.5203 287.666C17.6326 287.666 20.7449 287.666 23.8572 287.666L23.8768 287.705Z" fill="#4E5459"/>
<path d="M241.033 37.5986C238.293 20.22 249.431 9.88305 259.492 7.45083C260.647 7.17622 261.86 6.82315 263.035 6.86238C268.829 7.03892 273.977 6.9801 278.949 2.23335C283.568 -2.17994 291.711 0.428788 295.45 5.86205C299.11 11.1776 298.092 18.6704 293.042 22.9268C291.731 24.0252 290.282 24.6921 290.713 27.0263C292.944 39.1874 287.914 48.0924 277.97 54.6829C270.493 53.0745 268.633 50.4461 266.989 38.8931C265.227 41.3646 264.503 44.346 261.528 46.3859C262.8 39.3443 259.316 35.4606 254.285 32.3418C250.586 30.0469 247.552 27.0655 246.005 22.613C243.774 26.2025 243.128 29.9881 243.128 33.9306C243.128 35.4998 243.441 37.324 241.053 37.5986H241.033Z" fill="#F7931E"/>
<path d="M145.981 144.086C144.493 139.477 141.479 138.536 136.977 139.771C134.06 140.575 130.889 140.536 127.836 140.811C126.446 140.929 124.958 140.791 124.782 139.026C124.645 137.496 125.996 137.182 127.17 136.809C131.888 135.319 136.566 133.73 141.303 132.318C144.963 131.239 148.408 132.926 151.932 133.455C163.52 135.181 175.147 134.161 186.774 134.142C189.436 134.142 192.118 133.906 194.78 133.789C203.549 134.246 210.126 130.775 214.51 123.373C215.528 121.667 216.507 119.941 217.525 118.215C224.18 121.687 230.953 124.943 236.531 130.14C233.928 134.789 231.325 139.457 228.721 144.106C227.214 146.636 225.785 149.206 224.161 151.658C222.203 154.6 219.482 155.738 215.9 155.071C196.404 151.442 176.908 147.872 157.412 144.381C153.654 143.714 149.759 145.911 145.981 144.126V144.086Z" fill="#FFEBDF"/>
<path d="M210.322 231.333C214.06 234.569 218.425 235.412 223.26 235.197C228.819 234.961 234.398 235.197 239.977 235.255C237.804 248.593 235.592 261.912 233.478 275.25C233.224 276.799 232.499 277.309 231.11 277.29C224.65 277.29 218.191 277.29 211.751 277.29C208.854 276.878 204.743 278.506 203.373 276.564C202.159 274.838 203.843 271.013 204.312 268.13C206.309 255.851 208.325 243.592 210.322 231.313V231.333Z" fill="#022E9C"/>
<path d="M241.033 37.5985C243.402 37.3435 243.108 35.5193 243.108 33.9305C243.108 29.988 243.754 26.2024 245.986 22.6129C247.532 27.0654 250.566 30.0469 254.266 32.3418C259.316 35.4605 262.78 39.3442 261.508 46.3859C264.483 44.3459 265.208 41.3645 266.969 38.8931C268.594 50.4461 270.453 53.0745 277.95 54.6829C275.601 59.3315 275.073 64.0587 277.226 68.9427C269.514 68.9035 261.821 68.8643 254.109 68.825C254.422 61.2342 253.424 59.7631 246.26 57.8801C243.382 57.1151 242.482 55.1536 242.541 52.5056C242.599 49.6811 242.736 46.9743 240.074 44.9344C238.763 43.934 239.115 42.2668 239.937 40.8938C240.544 39.8738 241.425 38.9519 241.073 37.5985H241.033Z" fill="#FFEBDF"/>
<path d="M230.326 293.334C231.325 297.022 230.326 300.69 230.013 304.338C229.837 306.378 227.958 307.3 225.805 307.3C213.316 307.3 200.848 307.3 188.359 307.3C187.107 307.3 185.815 307.28 185.423 305.79C185.11 304.574 185.873 303.769 186.891 303.22C194.584 299.16 202.277 295.06 209.989 291.079C210.615 290.765 211.555 291.039 212.338 291.039C213.277 292.118 214.608 292.354 215.9 292.707C220.657 294.001 225.492 293.275 230.287 293.354L230.326 293.334Z" fill="#4E5459"/>
<path d="M182.095 299.552C181.763 307.163 181.626 307.3 173.874 307.3C162.873 307.3 151.892 307.3 140.892 307.3C139.443 307.3 137.642 307.614 137.172 305.77C136.703 303.907 138.464 303.338 139.717 302.671C147.273 298.67 154.868 294.708 162.443 290.745C166.514 293.021 170.918 293.589 175.538 293.491C181.802 293.334 181.821 293.452 182.095 299.592V299.552Z" fill="#4E5459"/>
<path d="M268.066 235.295C268.888 235.275 269.71 235.255 270.532 235.236C270.532 251.359 270.61 267.482 270.434 283.606C270.395 287.097 271.57 287.823 274.799 287.784C289.558 287.627 304.298 287.705 319.057 287.725C320.133 287.725 321.21 287.744 322.267 287.803C322.854 287.842 323.304 288.156 323.363 288.764C323.461 289.588 322.932 289.98 322.208 290.059C321.543 290.137 320.877 290.137 320.211 290.137C290.302 290.137 260.393 290.098 230.503 290.078C230.131 289.235 230.033 288.411 230.757 287.685C242.032 287.685 253.287 287.627 264.562 287.784C267.439 287.823 268.183 286.842 268.164 284.076C268.046 267.816 268.085 251.555 268.085 235.295H268.066Z" fill="#C0C6CC"/>
<path d="M182.095 299.552C181.802 293.432 181.802 293.315 175.538 293.452C170.919 293.57 166.534 292.981 162.443 290.706C162.736 286.234 163.03 281.742 163.324 277.27C169.999 277.27 176.673 277.27 183.348 277.27C182.937 284.684 182.506 292.099 182.095 299.533V299.552Z" fill="#FFEBDF"/>
<path d="M230.757 287.685C230.033 288.411 230.131 289.235 230.503 290.078C230.444 291.157 230.405 292.256 230.346 293.334C225.55 293.256 220.715 294.001 215.959 292.687C214.667 292.334 213.336 292.099 212.396 291.02C212.181 286.45 211.985 281.86 211.77 277.29C218.23 277.29 224.689 277.29 231.129 277.29C231.012 280.761 230.875 284.214 230.757 287.685Z" fill="#FFEBDF"/>
<path d="M303.397 209.521C300.265 212.012 296.507 210.129 293.14 210.992C292.827 206.598 295.587 203.048 296.37 198.949C300.147 198.949 303.925 198.949 307.723 198.949C307.684 203.048 305.824 206.402 303.397 209.501V209.521Z" fill="#0143CD"/>
<path d="M317.393 307.124C313.713 307.182 310.874 304.495 310.933 301.023C310.992 297.767 313.889 295.041 317.256 295.041C320.681 295.041 323.343 297.65 323.48 301.082C323.617 304.299 320.818 307.065 317.393 307.124Z" fill="#A1A8B0"/>
<path d="M293.14 307.124C289.656 307.124 286.837 304.495 286.876 301.259C286.916 297.964 289.715 295.1 292.984 295.021C296.507 294.943 299.521 297.846 299.423 301.259C299.326 304.574 296.605 307.124 293.14 307.124Z" fill="#A1A8B0"/>
<path d="M296.389 198.968C295.606 203.068 292.846 206.618 293.159 211.012C292.063 210.855 290.811 211.424 289.93 210.286C291.241 206.52 292.553 202.754 293.845 198.988C294.686 198.988 295.548 198.988 296.389 198.988V198.968Z" fill="#C0C6CC"/>
<path d="M228.721 144.067C231.325 139.418 233.928 134.75 236.531 130.101C235.807 134.809 236.062 139.673 234.319 144.243C232.46 144.185 230.581 144.126 228.721 144.087V144.067Z" fill="#FCFCFE"/>
<path d="M145.335 128.787C133.277 128.787 121.2 128.709 109.142 128.846C106.402 128.865 105.403 128.101 105.443 125.217C105.58 111.389 105.56 97.5409 105.443 83.7126C105.423 81.0057 106.363 80.2996 108.946 80.3192C133.473 80.3977 158.019 80.3977 182.545 80.3192C185.11 80.3192 186.069 81.0254 186.049 83.7126C185.932 97.5409 185.932 111.389 186.049 125.217C186.069 128.101 185.09 128.865 182.33 128.846C169.998 128.728 157.667 128.787 145.335 128.787Z" fill="#FEFEFE"/>
</svg>
