<svg width="490" height="305" viewBox="0 0 490 305" fill="none" xmlns="http://www.w3.org/2000/svg">
<path d="M488.712 40.2882V12.1607C488.712 6.00174 483.72 1 477.574 1H12.1377C5.99143 1 1 6.00174 1 12.1607V40.2882H1.03915M69.9405 15.8875C72.8179 15.8875 75.1472 18.2217 75.1472 21.105C75.1472 23.9884 72.8179 26.3225 69.9405 26.3225C67.0631 26.3225 64.7337 23.9884 64.7337 21.105C64.7337 18.2217 67.0631 15.8875 69.9405 15.8875ZM48.4871 15.8875C51.3645 15.8875 53.6939 18.2217 53.6939 21.105C53.6939 23.9884 51.3645 26.3225 48.4871 26.3225C45.6097 26.3225 43.2804 23.9884 43.2804 21.105C43.2804 18.2217 45.6097 15.8875 48.4871 15.8875ZM27.0337 15.8875C29.9112 15.8875 32.2405 18.2217 32.2405 21.105C32.2405 23.9884 29.9112 26.3225 27.0337 26.3225C24.1563 26.3225 21.827 23.9884 21.827 21.105C21.827 18.2217 24.1563 15.8875 27.0337 15.8875Z" fill="white"/>
<mask id="mask0_109_1284" style="mask-type:luminance" maskUnits="userSpaceOnUse" x="313" y="40" width="113" height="44">
<path d="M313.15 83.7739L425.37 83.7739V40.504L313.15 40.504V83.7739Z" fill="white"/>
</mask>
<g mask="url(#mask0_109_1284)">
<path d="M370.64 24.2042C360.403 24.2042 350.185 24.165 339.948 24.2042C331.002 24.263 324.171 30.5986 323.603 39.6213C323.29 44.5446 323.29 49.5267 323.584 54.45C324.132 63.4727 330.885 69.8279 339.869 69.8671C356.625 69.9456 373.4 70.1417 390.136 69.7494C396.811 69.5925 402.566 70.9459 407.87 74.9081C409.984 76.4773 412.411 77.6149 414.604 79.086C417.873 81.3025 418.773 80.1648 418.734 76.6146C418.636 65.1204 418.871 53.6262 418.656 42.1516C418.44 30.7947 411.491 24.2042 400.275 24.2042C390.39 24.2042 380.525 24.2042 370.64 24.2042Z" fill="#C0C6CC"/>
</g>
<path d="M12.1378 303.713L477.574 303.713C483.725 303.713 488.712 298.716 488.712 292.552L488.712 12.1608C488.712 5.99695 483.725 1.00015 477.574 1.00015L12.1378 1.00015C5.98657 1.00015 1 5.99695 1 12.1608L1 292.552C1 298.716 5.98657 303.713 12.1378 303.713Z" stroke="url(#paint0_linear_109_1284)" stroke-width="1.32" stroke-linecap="round" stroke-linejoin="round"/>
<path d="M488.712 40.2882H1.03906" stroke="url(#paint1_linear_109_1284)" stroke-width="1.32" stroke-linecap="round" stroke-linejoin="round"/>
<path d="M69.9406 26.3226C72.8162 26.3226 75.1474 23.9866 75.1474 21.1051C75.1474 18.2235 72.8162 15.8876 69.9406 15.8876C67.065 15.8876 64.7339 18.2235 64.7339 21.1051C64.7339 23.9866 67.065 26.3226 69.9406 26.3226Z" fill="#8681FE"/>
<path d="M48.487 26.3226C51.3626 26.3226 53.6938 23.9866 53.6938 21.1051C53.6938 18.2235 51.3626 15.8876 48.487 15.8876C45.6114 15.8876 43.2803 18.2235 43.2803 21.1051C43.2803 23.9866 45.6114 26.3226 48.487 26.3226Z" fill="#8681FE"/>
<path d="M27.0339 26.3226C29.9095 26.3226 32.2406 23.9866 32.2406 21.1051C32.2406 18.2235 29.9095 15.8876 27.0339 15.8876C24.1583 15.8876 21.8271 18.2235 21.8271 21.1051C21.8271 23.9866 24.1583 26.3226 27.0339 26.3226Z" fill="#8681FE"/>
<path d="M373.185 149.856C362.948 149.856 352.73 149.816 342.493 149.856C333.547 149.915 326.716 156.25 326.148 165.273C325.835 170.196 325.835 175.178 326.128 180.101C326.677 189.124 333.43 195.479 342.414 195.519C359.17 195.597 375.945 195.793 392.681 195.401C399.356 195.244 405.111 196.597 410.415 200.56C412.529 202.129 414.956 203.266 417.149 204.737C420.418 206.954 421.318 205.816 421.279 202.266C421.181 190.772 421.416 179.278 421.201 167.803C420.985 156.446 414.036 149.856 402.82 149.856C392.935 149.856 383.07 149.856 373.185 149.856Z" fill="#878D96"/>
<path d="M335.445 86.4415C345.683 86.4415 355.9 86.4023 366.138 86.4415C375.083 86.5004 381.915 92.8359 382.482 101.859C382.795 106.782 382.795 111.764 382.502 116.687C381.954 125.71 375.201 132.065 366.216 132.104C349.461 132.183 332.685 132.379 315.949 131.987C309.275 131.83 303.52 133.183 298.215 137.145C296.101 138.715 293.674 139.852 291.482 141.323C288.213 143.54 287.312 142.402 287.351 138.852C287.449 127.358 287.214 115.863 287.43 104.389C287.645 93.032 294.594 86.4415 305.81 86.4415C315.695 86.4415 325.56 86.4415 335.445 86.4415Z" fill="url(#paint2_linear_109_1284)"/>
<path d="M335.445 215.035C345.683 215.035 355.9 214.996 366.138 215.035C375.083 215.094 381.915 221.43 382.482 230.452C382.795 235.376 382.795 240.358 382.502 245.281C381.954 254.304 375.201 260.659 366.216 260.698C349.461 260.777 332.685 260.973 315.949 260.58C309.275 260.424 303.52 261.777 298.215 265.739C296.101 267.308 293.674 268.446 291.482 269.917C288.213 272.134 287.312 270.996 287.351 267.446C287.449 255.951 287.214 244.457 287.43 232.983C287.645 221.626 294.594 215.035 305.81 215.035C315.695 215.035 325.56 215.035 335.445 215.035Z" fill="url(#paint3_linear_109_1284)"/>
<path d="M353.14 243.025C356.016 243.025 358.347 240.689 358.347 237.808C358.347 234.926 356.016 232.59 353.14 232.59C350.265 232.59 347.934 234.926 347.934 237.808C347.934 240.689 350.265 243.025 353.14 243.025Z" fill="white"/>
<path d="M336.032 243.025C338.908 243.025 341.239 240.689 341.239 237.808C341.239 234.926 338.908 232.59 336.032 232.59C333.157 232.59 330.826 234.926 330.826 237.808C330.826 240.689 333.157 243.025 336.032 243.025Z" fill="white"/>
<path d="M318.925 243.025C321.8 243.025 324.131 240.689 324.131 237.808C324.131 234.926 321.8 232.59 318.925 232.59C316.049 232.59 313.718 234.926 313.718 237.808C313.718 240.689 316.049 243.025 318.925 243.025Z" fill="white"/>
<path d="M144.832 253.323H190.988" stroke="#81AEFF" stroke-width="1.32" stroke-linecap="round" stroke-linejoin="round"/>
<path d="M96.5225 229.413H190.988" stroke="url(#paint4_linear_109_1284)" stroke-width="1.32" stroke-linecap="round" stroke-linejoin="round"/>
<path d="M96.5225 241.358H190.988" stroke="url(#paint5_linear_109_1284)" stroke-width="1.32" stroke-linecap="round" stroke-linejoin="round"/>
<path d="M227.709 263.876C240.228 263.876 250.376 253.706 250.376 241.162C250.376 228.617 240.228 218.448 227.709 218.448C215.19 218.448 205.042 228.617 205.042 241.162C205.042 253.706 215.19 263.876 227.709 263.876Z" stroke="url(#paint6_linear_109_1284)" stroke-width="1.32" stroke-linecap="round" stroke-linejoin="round"/>
<path d="M224.499 252.735L215.162 243.751L218.059 240.77L224.44 246.87L237.105 233.944L240.061 236.866L224.499 252.735Z" fill="url(#paint7_linear_109_1284)"/>
<defs>
<linearGradient id="paint0_linear_109_1284" x1="489.984" y1="152.366" x2="-0.291911" y2="152.366" gradientUnits="userSpaceOnUse">
<stop stop-color="#81AEFF"/>
<stop offset="1" stop-color="#8681FE"/>
</linearGradient>
<linearGradient id="paint1_linear_109_1284" x1="nan" y1="nan" x2="nan" y2="nan" gradientUnits="userSpaceOnUse">
<stop stop-color="#81AEFF"/>
<stop offset="1" stop-color="#8681FE"/>
</linearGradient>
<linearGradient id="paint2_linear_109_1284" x1="382.698" y1="114.432" x2="287.312" y2="114.432" gradientUnits="userSpaceOnUse">
<stop stop-color="#C0A0FE"/>
<stop offset="1" stop-color="#DDE0E5"/>
</linearGradient>
<linearGradient id="paint3_linear_109_1284" x1="382.698" y1="243.025" x2="287.312" y2="243.025" gradientUnits="userSpaceOnUse">
<stop stop-color="#8681FE"/>
<stop offset="1" stop-color="#8EB0FE"/>
</linearGradient>
<linearGradient id="paint4_linear_109_1284" x1="nan" y1="nan" x2="nan" y2="nan" gradientUnits="userSpaceOnUse">
<stop stop-color="#81AEFF"/>
<stop offset="1" stop-color="#8681FE"/>
</linearGradient>
<linearGradient id="paint5_linear_109_1284" x1="nan" y1="nan" x2="nan" y2="nan" gradientUnits="userSpaceOnUse">
<stop stop-color="#81AEFF"/>
<stop offset="1" stop-color="#8681FE"/>
</linearGradient>
<linearGradient id="paint6_linear_109_1284" x1="251.668" y1="241.162" x2="203.75" y2="241.162" gradientUnits="userSpaceOnUse">
<stop stop-color="#81AEFF"/>
<stop offset="1" stop-color="#8681FE"/>
</linearGradient>
<linearGradient id="paint7_linear_109_1284" x1="215.162" y1="243.339" x2="240.061" y2="243.339" gradientUnits="userSpaceOnUse">
<stop stop-color="#8681FE"/>
<stop offset="1" stop-color="#8EB0FE"/>
</linearGradient>
</defs>
</svg>
