<svg width="218" height="274" viewBox="0 0 218 274" fill="none" xmlns="http://www.w3.org/2000/svg">
<path d="M217.861 91.1689H17.9496L0 0H199.892L217.861 91.1689Z" fill="#FEFEFE"/>
<path d="M0 182.318H199.892L217.861 91.1689H17.9496L0 182.318Z" fill="#E6E7E8"/>
<path d="M17.6755 268.485C20.4747 268.485 22.804 270.466 23.3716 273.095H27.2278C27.7171 270.368 30.1052 268.289 32.963 268.289C35.8209 268.289 38.2089 270.368 38.6983 273.095H42.4761C42.8872 270.27 45.3144 268.113 48.2505 268.113C51.1866 268.113 53.6139 270.27 54.0249 273.095H57.744C58.0768 270.172 60.5431 267.917 63.538 267.917C66.5329 267.917 68.9992 270.172 69.332 273.095H73.0119C73.2468 270.094 75.7523 267.72 78.8255 267.72C81.8986 267.72 84.4042 270.094 84.639 273.095H88.2994C88.456 269.996 91.0007 267.544 94.1326 267.544C97.2644 267.544 99.8091 270.015 99.9657 273.095H103.606C103.665 269.917 106.249 267.348 109.44 267.348C112.63 267.348 115.214 269.917 115.273 273.095H118.894C118.894 273.095 118.894 273.036 118.894 272.997C118.894 269.76 121.497 267.152 124.727 267.152C127.957 267.152 130.56 269.76 130.56 272.997C130.56 273.036 130.56 273.056 130.56 273.095H134.201C134.201 273.095 134.201 272.899 134.201 272.801C134.201 269.564 136.804 266.955 140.034 266.955C143.264 266.955 145.867 269.564 145.867 272.801C145.867 272.899 145.867 272.997 145.867 273.095H149.528C149.528 272.938 149.508 272.781 149.508 272.624C149.508 269.388 152.111 266.779 155.341 266.779C158.571 266.779 161.174 269.388 161.174 272.624C161.174 272.781 161.174 272.938 161.155 273.095H164.835C164.815 272.879 164.796 272.663 164.796 272.428C164.796 269.192 167.399 266.583 170.629 266.583C173.858 266.583 176.462 269.192 176.462 272.428C176.462 272.644 176.462 272.879 176.423 273.095H180.142C180.103 272.82 180.083 272.526 180.083 272.232C180.083 268.995 182.686 266.387 185.916 266.387C189.146 266.387 191.749 268.995 191.749 272.232C191.749 272.526 191.73 272.801 191.691 273.095H195.468C195.41 272.761 195.371 272.408 195.371 272.055C195.371 268.819 197.974 266.21 201.204 266.21C204.433 266.21 207.037 268.819 207.037 272.055C207.037 272.408 206.998 272.761 206.939 273.095H210.795C210.717 272.703 210.658 272.291 210.658 271.859C210.658 268.623 213.261 266.014 216.491 266.014C216.491 266.014 216.491 266.014 216.511 266.014L199.951 181.926H0L17.0492 268.505C17.2449 268.485 17.4602 268.466 17.656 268.466L17.6755 268.485Z" fill="#FEFEFE"/>
<path d="M184.918 226.785L182.158 222.371L181.962 217.174L177.382 214.741L174.622 210.328L169.435 210.524L164.854 208.092L160.45 210.858L155.263 211.054L152.836 215.644L148.432 218.409L148.627 223.607L146.2 228.197L148.96 232.61L149.156 237.808L153.736 240.24L156.496 244.654L161.683 244.457L166.264 246.89L170.668 244.124L175.855 243.928L178.282 239.338L182.687 236.572L182.491 231.375L184.918 226.785ZM165.559 241.966C157.592 241.966 151.133 235.494 151.133 227.51C151.133 219.527 157.592 213.054 165.559 213.054C173.526 213.054 179.985 219.527 179.985 227.51C179.985 235.494 173.526 241.966 165.559 241.966Z" fill="#959799"/>
<path d="M165.559 238.652C171.699 238.652 176.677 233.663 176.677 227.51C176.677 221.357 171.699 216.369 165.559 216.369C159.419 216.369 154.441 221.357 154.441 227.51C154.441 233.663 159.419 238.652 165.559 238.652Z" fill="#959799"/>
<path d="M178.478 45.6433H37.9934C37.561 45.6433 37.2104 45.9946 37.2104 46.4279V49.4878C37.2104 49.9211 37.561 50.2724 37.9934 50.2724H178.478C178.91 50.2724 179.261 49.9211 179.261 49.4878V46.4279C179.261 45.9946 178.91 45.6433 178.478 45.6433Z" fill="#959799"/>
<path d="M182.863 105.743H42.3782C41.9458 105.743 41.5952 106.094 41.5952 106.527V109.587C41.5952 110.02 41.9458 110.372 42.3782 110.372H182.863C183.295 110.372 183.646 110.02 183.646 109.587V106.527C183.646 106.094 183.295 105.743 182.863 105.743Z" fill="#959799"/>
<path d="M178.341 124.965H37.8567C37.4243 124.965 37.0737 125.316 37.0737 125.75V128.809C37.0737 129.243 37.4243 129.594 37.8567 129.594H178.341C178.773 129.594 179.124 129.243 179.124 128.809V125.75C179.124 125.316 178.773 124.965 178.341 124.965Z" fill="#959799"/>
<path d="M171.079 144.187H30.5945C30.1621 144.187 29.8115 144.539 29.8115 144.972V148.032C29.8115 148.465 30.1621 148.816 30.5945 148.816H171.079C171.511 148.816 171.862 148.465 171.862 148.032V144.972C171.862 144.539 171.511 144.187 171.079 144.187Z" fill="#959799"/>
<path d="M167.008 163.41H26.5232C26.0908 163.41 25.7402 163.761 25.7402 164.194V167.254C25.7402 167.687 26.0908 168.039 26.5232 168.039H167.008C167.44 168.039 167.791 167.687 167.791 167.254V164.194C167.791 163.761 167.44 163.41 167.008 163.41Z" fill="#959799"/>
<path d="M111.867 203.835H26.5232C26.0908 203.835 25.7402 204.187 25.7402 204.62V207.68C25.7402 208.113 26.0908 208.465 26.5232 208.465H111.867C112.299 208.465 112.65 208.113 112.65 207.68V204.62C112.65 204.187 112.299 203.835 111.867 203.835Z" fill="#959799"/>
<path d="M80.9199 218.35H31.9256C31.4931 218.35 31.1426 218.702 31.1426 219.135V222.195C31.1426 222.628 31.4931 222.979 31.9256 222.979H80.9199C81.3523 222.979 81.7029 222.628 81.7029 222.195V219.135C81.7029 218.702 81.3523 218.35 80.9199 218.35Z" fill="#959799"/>
<path d="M155.929 60.7466H60.5432C60.1108 60.7466 59.7603 61.0979 59.7603 61.5312V64.5911C59.7603 65.0244 60.1108 65.3756 60.5432 65.3756H155.929C156.361 65.3756 156.711 65.0244 156.711 64.5911V61.5312C156.711 61.0979 156.361 60.7466 155.929 60.7466Z" fill="#959799"/>
<path d="M60.9344 25.401C59.1923 20.8504 60.4842 18.3005 64.0467 18.3005C66.4739 18.3005 68.4313 19.3205 70.1734 21.4193L68.4313 22.5765C67.5896 21.38 66.4152 20.5562 64.908 20.5562C63.0093 20.5562 62.3242 21.9292 63.205 24.2438L64.0271 26.3818C64.9275 28.7159 66.6501 30.0301 68.5488 30.0301C70.0756 30.0301 70.6628 29.1082 70.6432 27.8725L73.1879 29.0886C72.9921 31.1089 71.8373 32.2858 69.41 32.2858C65.8475 32.2858 62.6765 29.932 60.9344 25.3814V25.401Z" fill="#959799"/>
<path d="M73.7166 27.0095C72.4834 23.8123 73.4229 21.7332 76.3787 21.7332C79.5301 21.7332 81.879 24.0673 82.936 26.833L83.2492 27.6568H76.5353L76.6331 27.9118C77.1812 29.3633 78.3948 30.3636 80.0195 30.3636C81.2331 30.3636 81.7616 29.7752 82.0748 28.9906L83.993 30.4813C83.6016 31.6189 82.4075 32.3447 80.5284 32.3447C77.5531 32.3447 74.9693 30.2655 73.7361 27.0291L73.7166 27.0095ZM75.8893 25.9699L75.948 26.1268H80.0978L80.039 25.9503C79.5105 24.5577 78.4144 23.5965 77.142 23.5965C75.8697 23.5965 75.3608 24.5577 75.9089 25.9699H75.8893Z" fill="#959799"/>
<path d="M87.1443 32.0897L83.2686 21.9685H85.7545L86.557 24.0673H86.6549C86.4983 23.0081 86.9094 21.9685 88.534 21.9685H89.0821L89.9825 24.3223H89.1996C87.5358 24.3223 86.8506 24.793 87.2617 25.8914L89.6498 32.1093H87.1638L87.1443 32.0897Z" fill="#959799"/>
<path d="M94.3866 29.5005L92.253 23.93H90.7653L90.002 21.9489H90.7849C91.5287 21.9489 91.6266 21.5958 91.3526 20.9093L90.687 19.1832H92.9185L93.9755 21.9489H96.0504L96.8138 23.93H94.7389L97.1074 30.1086H99.0257L99.7891 32.0897H98.0078C96.3049 32.0897 95.0325 31.1678 94.4062 29.5005H94.3866Z" fill="#959799"/>
<path d="M96.9508 19.242L96.7942 18.8497C96.5202 18.124 96.7355 17.614 97.7729 17.614C98.8104 17.614 99.4172 18.1436 99.7108 18.8497L99.8674 19.242C100.141 19.9678 99.9065 20.4778 98.8887 20.4778C97.8708 20.4778 97.2444 19.9482 96.9508 19.242ZM98.2036 21.9685H100.689L104.565 32.0896H102.079L98.2036 21.9685Z" fill="#959799"/>
<path d="M104.8 23.9103H103.313L102.569 21.9489H104.056L103.508 20.4974C102.823 18.7124 103.411 17.7317 105.231 17.7317H106.993L107.756 19.7128H105.681L106.542 21.9685H112.787L116.662 32.0896H114.176L111.044 23.9299H107.286L110.418 32.0896H107.932L104.8 23.9299V23.9103ZM109.028 19.242L108.872 18.8497C108.598 18.124 108.813 17.614 109.85 17.614C110.888 17.614 111.495 18.1436 111.788 18.8497L111.945 19.242C112.219 19.9678 111.984 20.4778 110.966 20.4778C109.948 20.4778 109.322 19.9482 109.028 19.242Z" fill="#959799"/>
<path d="M116.897 27.0095C115.664 23.7731 116.565 21.7332 119.54 21.7332C121.576 21.7332 123.279 22.6943 124.492 24.3027L122.809 25.2049C122.241 24.3419 121.38 23.7338 120.303 23.7338C118.933 23.7338 118.6 24.695 119.148 26.1268L119.853 27.9706C120.401 29.3829 121.458 30.344 122.828 30.344C124.003 30.344 124.336 29.6575 124.355 28.7552L126.606 29.6575C126.626 31.4424 125.569 32.3447 123.611 32.3447C120.636 32.3447 118.15 30.2851 116.917 27.0291L116.897 27.0095Z" fill="#959799"/>
<path d="M127.683 29.324C126.88 27.2448 128.055 26.2249 130.814 26.2249H132.537L132.263 25.4795C131.832 24.3615 131.01 23.6946 129.699 23.6946C128.544 23.6946 128.094 24.283 127.878 24.9695L125.901 23.6554C126.195 22.4981 127.076 21.7135 129.112 21.7135C131.832 21.7135 133.79 23.0081 134.671 25.3226L136.491 30.089H137.489L138.253 32.07H136.883C135.826 32.07 134.886 31.3639 134.338 30.3243H134.22C134.397 31.6189 133.555 32.3054 132.028 32.3054C129.973 32.3054 128.368 31.1285 127.663 29.324H127.683ZM133.614 29.0494L133.105 27.7156H131.519C130.227 27.7156 129.757 28.1667 130.051 28.9513L130.169 29.2848C130.482 30.1086 131.206 30.5009 132.165 30.5009C133.261 30.5009 133.966 29.9909 133.594 29.0494H133.614Z" fill="#959799"/>
<path d="M139.74 29.5005L137.607 23.93H136.119L135.355 21.9489H136.138C136.882 21.9489 136.98 21.5958 136.706 20.9093L136.041 19.1832H138.272L139.329 21.9489H141.404L142.167 23.93H140.092L142.461 30.1086H144.379L145.143 32.0897H143.361C141.658 32.0897 140.386 31.1678 139.76 29.5005H139.74Z" fill="#959799"/>
<path d="M144.732 27.0095C143.499 23.8123 144.438 21.7332 147.394 21.7332C150.545 21.7332 152.894 24.0673 153.951 26.833L154.264 27.6568H147.55L147.648 27.9118C148.196 29.3633 149.41 30.3636 151.035 30.3636C152.248 30.3636 152.777 29.7752 153.09 28.9906L155.008 30.4813C154.617 31.6189 153.423 32.3447 151.544 32.3447C148.568 32.3447 145.984 30.2655 144.751 27.0291L144.732 27.0095ZM146.904 25.9699L146.963 26.1268H151.113L151.054 25.9503C150.526 24.5577 149.43 23.5965 148.157 23.5965C146.885 23.5965 146.376 24.5577 146.924 25.9699H146.904Z" fill="#959799"/>
</svg>
